<svg width="28" height="28" viewBox="0 0 28 28" fill="none" xmlns="http://www.w3.org/2000/svg">
<path d="M14.8219 0C14.2751 0 13.7284 0 13.1816 0C13.1115 0.0153407 13.0413 0.0399953 12.9701 0.0449263C11.0164 0.178061 9.15907 0.681016 7.45353 1.63652C2.85301 4.21266 0.350306 8.14973 0.0259628 13.4149C-0.129635 15.9401 0.414406 18.3562 1.65151 20.5664C4.22105 25.1565 8.15974 27.6499 13.4139 27.9743C15.939 28.1304 18.347 27.5743 20.567 26.3531C24.5155 24.1813 26.924 20.8671 27.7852 16.4364C27.8893 15.9006 27.9063 15.3549 28 14.8185C28 14.2718 28 13.725 28 13.1782C27.9841 13.0998 27.9589 13.0215 27.9534 12.9426C27.817 10.9899 27.3004 9.13975 26.3558 7.42927C24.178 3.48672 20.8699 1.07659 16.4414 0.214769C15.9051 0.110124 15.3583 0.0958792 14.8219 0ZM21.1581 9.89692C21.1641 9.99828 21.1691 10.0432 21.1691 10.0881C21.1696 13.3864 21.1669 16.6846 21.1746 19.9823C21.1751 20.2059 21.0885 20.2278 20.9028 20.2272C16.3746 20.2228 11.847 20.2223 7.31875 20.2283C7.10563 20.2289 7.04372 20.1746 7.04426 19.9571C7.05139 16.6315 7.04865 13.3064 7.05084 9.98075C7.05084 9.91555 7.01577 9.83556 7.10563 9.77584C7.21136 9.85857 7.3182 9.9413 7.42394 10.0251C9.37 11.5729 11.3237 13.1119 13.2577 14.6744C13.8018 15.1138 14.3086 15.1007 14.8553 14.6816C16.7778 13.2078 18.7124 11.7493 20.6426 10.2854C20.8004 10.1659 20.9592 10.047 21.1581 9.89692ZM20.4404 7.78484C20.4289 7.87963 20.3593 7.8988 20.3122 7.93551C18.267 9.50355 16.219 11.0688 14.1782 12.6424C14.0198 12.7645 13.9338 12.713 13.8089 12.6139C11.8464 11.0579 9.88117 9.50519 7.91813 7.94976C7.86608 7.90866 7.78225 7.88894 7.78061 7.78484C11.9976 7.78484 16.2113 7.78484 20.4404 7.78484Z" fill="#F8EEE4"/>
</svg>
