<svg width="28" height="28" viewBox="0 0 28 28" fill="none" xmlns="http://www.w3.org/2000/svg">
<path d="M13.1235 0C13.707 0 14.29 0 14.8735 0C15.3414 0.0602739 15.8126 0.103014 16.2772 0.184109C19.6232 0.768219 22.4345 2.32657 24.6283 4.9189C27.4046 8.19945 28.4752 12.0049 27.8062 16.2444C27.227 19.9145 25.4009 22.8964 22.4455 25.143C19.3877 27.4679 15.915 28.3638 12.1088 27.8679C9.3172 27.5046 6.85712 26.3616 4.75098 24.4915C2.31829 22.3315 0.798961 19.6455 0.217089 16.44C0.123397 15.9222 0.0707987 15.3973 -0.000976562 14.8751C-0.000976562 14.2915 -0.000976562 13.7085 -0.000976562 13.1249C0.0412119 12.783 0.0768256 12.44 0.125589 12.0992C0.56665 9.04766 1.85313 6.40712 4.01296 4.20712C6.10978 2.07288 8.63671 0.734246 11.5877 0.215342C12.0962 0.125479 12.6112 0.0706849 13.1235 0ZM15.2017 18.5638C15.2017 17.3156 15.2126 16.0668 15.1935 14.8192C15.1891 14.5282 15.28 14.4773 15.5414 14.4866C16.1145 14.5057 16.6892 14.486 17.2629 14.4964C17.4399 14.4997 17.4897 14.4433 17.5056 14.269C17.5779 13.4712 17.659 12.6734 17.7565 11.8783C17.7839 11.6575 17.7149 11.6181 17.5155 11.6214C16.8322 11.6312 16.1485 11.6164 15.4658 11.6301C15.245 11.6345 15.1907 11.5622 15.1978 11.3523C15.2126 10.8882 15.1989 10.423 15.2039 9.95835C15.2093 9.40876 15.4592 9.16219 16.0126 9.1578C16.5139 9.15397 17.0147 9.15123 17.516 9.15999C17.6831 9.16273 17.7346 9.10794 17.733 8.94136C17.7259 8.1578 17.7259 7.37424 17.733 6.59068C17.7346 6.42958 17.6935 6.36383 17.5198 6.36493C16.709 6.37041 15.8975 6.34082 15.0877 6.36657C13.1618 6.42685 12.0479 7.48109 11.8502 9.40712C11.785 10.0427 11.8206 10.6822 11.8304 11.3189C11.8343 11.5803 11.7482 11.6416 11.5066 11.6296C11.1434 11.611 10.7779 11.629 10.4136 11.623C10.2777 11.6208 10.2207 11.6592 10.2218 11.8071C10.2278 12.6455 10.2284 13.4838 10.2212 14.3222C10.2201 14.4811 10.293 14.4964 10.4196 14.4942C10.7746 14.4888 11.1313 14.5112 11.4853 14.4866C11.7576 14.4674 11.8321 14.543 11.8304 14.8241C11.8178 17.3205 11.8271 19.8175 11.8173 22.314C11.8162 22.5611 11.8896 22.6186 12.1252 22.6153C13.0544 22.6027 13.9837 22.6 14.9129 22.6164C15.1639 22.6208 15.2093 22.5397 15.2072 22.309C15.1956 21.0603 15.2017 19.812 15.2017 18.5638Z" fill="#F8EEE4"/>
</svg>
