<svg width="205" height="50" viewBox="0 0 205 50" fill="none" xmlns="http://www.w3.org/2000/svg">
<path d="M93.861 22.8717C93.861 25.1408 92.6007 27.3346 90.2499 29.3612C87.9 31.3871 84.4849 33.223 80.2431 34.7697C71.7617 37.8623 60.0282 39.7801 47.0555 39.7801C34.0829 39.7801 22.3493 37.8623 13.8679 34.7697C9.62616 33.223 6.21108 31.3871 3.8611 29.3612C1.51035 27.3346 0.25 25.1408 0.25 22.8717C0.25 20.6027 1.51035 18.4089 3.8611 16.3823C6.21108 14.3563 9.62616 12.5205 13.8679 10.9738C22.3493 7.88115 34.0829 5.96338 47.0555 5.96338C60.0282 5.96338 71.7617 7.88115 80.2431 10.9738C84.4849 12.5205 87.9 14.3563 90.2499 16.3823C92.6007 18.4089 93.861 20.6027 93.861 22.8717Z" stroke="white" stroke-width="0.5"/>
<path fill-rule="evenodd" clip-rule="evenodd" d="M76.4328 0.0234375C76.4177 5.46244 72.2386 9.86732 67.0835 9.87286C72.2386 9.87838 76.4177 14.2833 76.4328 19.7223C76.448 14.2833 80.6271 9.87838 85.7822 9.87286C80.6271 9.86732 76.448 5.46244 76.4328 0.0234375Z" fill="white"/>
<path d="M31.6219 12.6605C31.6219 20.5005 20.4219 21.4805 20.4219 24.0005C20.4219 25.5965 22.9979 24.9525 26.1059 29.6005C30.5299 36.2365 31.3139 38.0005 32.6019 38.0005H36.8859V37.7205C33.6939 37.7205 31.0619 32.7645 28.4299 28.8445C25.7419 24.8125 20.7019 25.5965 20.7019 24.0005C20.7019 22.1805 34.2539 21.2565 34.2539 12.6045C34.2539 11.5685 33.9179 10.4765 33.4139 10.0005H30.6419C31.2579 10.4485 31.6219 11.6245 31.6219 12.6605ZM14.3459 38.0005H21.8779V37.7205C19.4699 37.7205 19.3019 35.7325 19.3019 30.2165V17.7845C19.3019 12.2685 19.4699 10.2805 21.8779 10.2805V10.0005H14.3459V10.2805C16.7539 10.2805 16.9219 12.2685 16.9219 17.7845V30.2165C16.9219 35.7325 16.7539 37.7205 14.3459 37.7205V38.0005ZM37.1702 32.3445C37.1702 35.9565 39.8022 38.5605 43.4142 38.5605C48.3142 38.5605 50.1622 34.5565 51.1702 29.7405V34.5285C51.1702 36.6285 52.3462 38.0005 53.8302 38.0005H55.8182V37.7205C55.0622 37.7205 53.6902 37.2165 53.6902 34.8645C53.6902 31.8965 53.6622 31.4765 53.6622 28.9845C53.6622 26.7445 53.4102 24.6165 51.3662 24.6165C50.9182 24.6165 50.6102 24.8405 50.6102 25.0085C51.0302 25.1205 51.0862 25.7645 51.0862 26.3805C51.0862 34.5285 47.2502 37.6365 44.2262 37.6365C41.4822 37.6365 39.6342 35.4245 39.6342 32.5125C39.6342 21.5645 53.7182 25.6525 53.7182 21.1445C53.7182 18.9325 49.6022 17.6165 46.4382 17.6165C42.0422 17.6165 38.7382 19.0445 38.7382 21.8165C38.7382 23.0205 39.5502 24.0565 40.7542 24.0565C41.6782 24.0565 42.6022 23.2725 42.3222 22.4325C42.0702 22.6845 41.2022 22.2085 41.2022 21.1445C41.2022 18.8205 43.7782 17.8965 46.4382 17.8965C48.7062 17.8965 51.3382 18.8205 51.3382 21.0885C51.3382 25.7085 37.1702 22.4885 37.1702 32.3445ZM57.2209 37.7205V38.0005H64.7809V37.7205C62.3729 37.7205 62.2049 35.7325 62.2049 30.2165V18.8205C63.5489 18.3445 65.1169 18.0085 66.5449 18.0085C68.4489 18.0085 72.8449 18.1765 72.8449 24.4485C72.8449 24.4485 72.8729 29.3765 72.8729 30.2165C72.8729 35.7325 72.7049 37.7205 70.2969 37.7205V38.0005H77.8569V37.7205C75.4489 37.7205 75.2809 35.7325 75.2809 30.2165V23.8605C75.2809 17.9805 70.2969 17.6165 67.8049 17.6165C66.2089 17.6165 62.7089 18.1765 60.4129 18.1765H57.2209V18.4565C59.6289 18.4565 59.7969 20.4445 59.7969 25.9605V30.2165C59.7969 35.7325 59.6289 37.7205 57.2209 37.7205ZM78.9799 18.4565C81.3879 18.4565 81.5559 20.4445 81.5559 25.9605V41.8365C81.5559 47.3525 81.3879 49.3405 78.9799 49.3405V49.6205H86.5399V49.3405C84.1319 49.3405 83.9639 47.3525 83.9639 41.8365V37.5525C85.8399 38.0005 86.3159 38.0005 87.7439 38.0005C94.2119 38.0005 98.9719 33.7445 98.9719 26.2965C98.9719 20.9205 95.4439 17.6165 90.7679 17.6165C87.9959 17.6165 85.6439 18.9325 83.9639 21.4525V18.1765H78.9799V18.4565ZM83.9639 25.7645C83.9639 20.2485 86.6799 18.2885 89.5639 18.2885C92.8679 18.2885 96.5359 20.5845 96.5359 26.8845C96.5359 33.2685 92.1959 37.7205 87.4079 37.7205C86.0639 37.7205 84.8599 37.3845 83.9639 36.9085V25.7645ZM111.934 38.5605C117.954 38.5605 121.594 33.8565 121.594 28.0885C121.594 22.3205 117.954 17.6165 111.934 17.6165C105.914 17.6165 102.33 22.3205 102.33 28.0885C102.33 33.8565 105.914 38.5605 111.934 38.5605ZM104.71 28.0885C104.71 21.9285 107.594 17.9525 111.934 17.9525C116.274 17.9525 119.214 21.9285 119.214 28.0885C119.214 34.2485 116.274 38.2245 111.934 38.2245C107.594 38.2245 104.71 34.2485 104.71 28.0885ZM132.868 38.0005C139.336 38.0005 144.096 33.7445 144.096 26.2965C144.096 20.9205 140.568 17.6165 135.892 17.6165C133.12 17.6165 130.768 18.9325 129.088 21.4525V10.0005H124.104V10.2805C126.512 10.2805 126.68 12.2685 126.68 17.7845V30.2165C126.68 35.7325 126.512 37.7205 124.104 37.7205V38.0005H132.868ZM129.088 25.7645C129.088 20.2485 131.804 18.2885 134.688 18.2885C137.992 18.2885 141.688 20.5845 141.688 26.8845C141.688 32.9885 137.32 37.7205 132.532 37.7205C131.104 37.7205 130.04 37.4125 129.088 36.9645V25.7645ZM146.608 38.0005H154.168V37.7205C151.76 37.7205 151.592 35.7325 151.592 30.2165V10.0005H146.608V10.2805C149.016 10.2805 149.184 12.2685 149.184 17.7845V30.2165C149.184 35.7325 149.016 37.7205 146.608 37.7205V38.0005ZM163.41 38.0005V37.7205C161.002 37.7205 160.834 35.7325 160.834 30.2165V18.1765H155.85V18.4565C158.258 18.4565 158.426 20.4445 158.426 25.9605V30.2165C158.426 35.7325 158.258 37.7205 155.85 37.7205V38.0005H163.41ZM157.614 14.5085C157.614 15.5445 158.454 16.3845 159.49 16.3845C160.526 16.3845 161.366 15.5445 161.366 14.5085C161.366 13.4725 160.526 12.6325 159.49 12.6325C158.454 12.6325 157.614 13.4725 157.614 14.5085ZM165.659 36.8525C167.451 38.0005 169.747 38.5605 172.715 38.5605C177.055 38.5605 181.059 36.9645 181.059 32.8485C181.059 25.0925 167.675 27.7525 167.675 21.9565C167.675 19.8565 169.691 17.8965 173.219 17.8965C176.215 17.8965 178.679 19.6605 179.771 22.8805H179.883V19.5765C179.883 19.5765 177.671 17.6165 172.939 17.6165C168.375 17.6165 166.051 19.8565 166.051 22.4885C166.051 30.3565 178.791 27.3045 178.791 33.2125C178.791 36.4325 175.767 38.2245 172.715 38.2805C168.319 38.3645 165.939 34.7525 165.939 33.4365H165.659V36.8525ZM184.416 36.8525C186.208 38.0005 188.504 38.5605 191.472 38.5605C195.812 38.5605 199.816 36.9645 199.816 32.8485C199.816 25.0925 186.432 27.7525 186.432 21.9565C186.432 19.8565 188.448 17.8965 191.976 17.8965C194.972 17.8965 197.436 19.6605 198.528 22.8805H198.64V19.5765C198.64 19.5765 196.428 17.6165 191.696 17.6165C187.132 17.6165 184.808 19.8565 184.808 22.4885C184.808 30.3565 197.548 27.3045 197.548 33.2125C197.548 36.4325 194.524 38.2245 191.472 38.2805C187.076 38.3645 184.696 34.7525 184.696 33.4365H184.416V36.8525Z" fill="white"/>
</svg>
