<svg width="212" height="46" viewBox="0 0 212 46" fill="none" xmlns="http://www.w3.org/2000/svg">
<path d="M17.8273 24.1146C17.374 23.4119 16.927 22.7156 16.4736 22.0449C14.6283 19.2725 11.8954 18.4676 9.89681 17.8735C8.6006 17.4903 7.80883 17.2347 7.80883 16.7493C7.80883 16.3276 9.60309 15.6825 11.1803 15.1075C15.6372 13.4978 23.1016 10.802 23.1016 3.88382C23.1016 2.59983 22.6674 1.29668 22.0544 0.70898L21.965 0.632324H17.7252L18.5169 1.20724C19.0724 1.60969 19.4939 2.79147 19.4939 3.95408C19.4939 9.40305 14.4687 11.8369 10.8035 13.6127C8.51121 14.7243 6.85742 15.5228 6.85742 16.7556C6.85742 17.7138 7.52149 18.0907 8.43458 18.6209C9.60309 19.2981 11.359 20.3138 13.3257 23.2522C14.424 24.9067 15.3243 26.2865 16.0778 27.4428C18.8681 31.7291 19.6152 32.879 20.9178 32.879H26.0707V31.9271H25.7514C22.8717 31.9271 20.3048 27.9538 17.8273 24.1146Z" fill="white"/>
<path d="M6.23203 23.7761V9.74161C6.23203 3.22585 6.53852 1.59052 8.81806 1.59052H9.13733V0.632324H0V1.59052H0.319264C2.60519 1.59052 2.9053 3.23224 2.9053 9.74161V23.7761C2.9053 30.2918 2.59881 31.9271 0.319264 31.9271H0V32.879H9.13733V31.9271H8.81806C6.53852 31.9271 6.23203 30.2854 6.23203 23.7761Z" fill="white"/>
<path d="M45.0351 29.021C45.0351 27.2707 45.0287 26.3061 45.0159 25.3799C45.0095 24.5366 45.0031 23.7254 45.0031 22.3839C45.0031 20.5505 45.0031 17.133 42.0915 17.133C41.4465 17.133 40.9166 17.4715 40.9166 17.8931V18.1359L41.1528 18.1998C41.3508 18.2509 41.4529 18.6725 41.4529 19.439C41.4529 27.9478 37.6026 31.8254 34.0332 31.8254C31.1726 31.8254 29.1677 29.5768 29.1677 26.3572C29.1677 19.0877 34.8506 17.8995 39.4224 16.9477C42.449 16.3153 45.0606 15.7723 45.0606 13.5237C45.0606 10.7194 40.1056 9.22461 36.5235 9.22461C30.9683 9.22461 27.5139 11.1666 27.5139 14.2839C27.5139 15.9065 28.6313 17.133 30.1063 17.133C30.8278 17.133 31.5494 16.7752 31.9516 16.2195C32.2517 15.8043 32.3284 15.3315 32.1815 14.878L32.0474 14.367L31.6835 14.7311C31.6515 14.7375 31.5302 14.7119 31.3834 14.5969C31.2493 14.4883 30.93 14.1625 30.93 13.5237C30.93 11.058 33.8161 10.1764 36.5171 10.1764C39.0265 10.1764 41.7275 11.2049 41.7275 13.4599C41.7275 15.3315 39.2883 15.9384 36.1915 16.7113C31.5366 17.874 25.7388 19.3177 25.7388 26.172C25.7388 30.4264 28.8356 33.5118 33.101 33.5118C38.1581 33.5118 40.361 29.8131 41.5359 25.8462V28.6377C41.5359 31.0971 42.9343 32.8794 44.8563 32.8794H47.4168V31.9276H47.0975C46.7719 31.9276 45.0351 31.787 45.0351 29.021Z" fill="white"/>
<path d="M69.3948 23.7759V16.5958C69.3948 11.709 66.4512 9.23047 60.6406 9.23047C59.8042 9.23047 58.5143 9.36462 57.1479 9.50515C55.5324 9.67124 53.6934 9.86288 52.2951 9.86288H48.3745V10.8147H48.6938C50.9797 10.8147 51.2798 12.4564 51.2798 18.9658V23.7696C51.2798 30.2853 50.9733 31.9207 48.6938 31.9207H48.3745V32.8725H57.5438V31.9207H57.2245C54.9386 31.9207 54.6385 30.2789 54.6385 23.7696V11.1341C56.2092 10.6039 57.8247 10.31 59.2167 10.31C61.0748 10.31 66.0043 10.31 66.0043 17.2602C66.0043 17.2602 66.0362 22.8241 66.0362 23.7696C66.0362 30.2853 65.7297 31.9207 63.4501 31.9207H63.1309V32.8725H72.3001V31.9207H71.9809C69.7013 31.927 69.3948 30.2853 69.3948 23.7759Z" fill="white"/>
<path d="M86.5524 9.23047C83.6152 9.23047 81.093 10.4953 79.1966 12.8972V9.86288H72.9326V10.8147H73.2519C75.5378 10.8147 75.8379 12.4564 75.8379 18.9658V36.8905C75.8379 43.4063 75.5314 45.0416 73.2519 45.0416H72.9326V45.9998H82.1019V45.0416H81.7826C79.4967 45.0416 79.1966 43.3999 79.1966 36.8905V32.4572C81.0291 32.8789 81.6102 32.8789 83.1427 32.8789C91.0349 32.8789 96.1303 27.564 96.1303 19.3491C96.1303 13.2996 92.28 9.23047 86.5524 9.23047ZM85.1987 10.6294C90.7731 10.6294 92.7461 15.6824 92.7461 20.0134C92.7461 27.4682 87.6698 31.927 82.7659 31.927C81.4953 31.927 80.2374 31.646 79.1966 31.1349V18.7486C79.1966 11.4216 83.3917 10.6294 85.1987 10.6294Z" fill="white"/>
<path d="M110.446 9.23047C103.876 9.23047 99.291 14.2259 99.291 21.3741C99.291 28.5222 103.882 33.5177 110.446 33.5177C117.055 33.5177 121.665 28.5222 121.665 21.3741C121.665 14.2259 117.048 9.23047 110.446 9.23047ZM115.81 19.1894C114.316 13.108 106.353 14.4175 104.872 19.7643C104.623 20.665 105.721 20.0837 105.881 19.5088C106.449 17.471 108.422 16.302 110.465 16.4297C114.06 16.6533 115.082 19.5726 115.069 22.6964C115.056 27.0594 111.564 29.9595 107.924 31.8184C107.866 31.8504 107.809 31.8951 107.758 31.9526C106.679 31.4927 105.74 30.7453 104.974 29.7487C108.856 29.2441 111.653 28.0367 113.422 24.0953C114.156 22.46 114.871 20.7736 113.517 19.3107C111.64 17.2857 109.808 18.5186 108.115 19.9112C106.142 21.5338 103.295 23.4054 102.822 19.3171C102.797 19.1127 102.797 18.9083 102.803 18.7167C102.848 18.3973 102.892 18.0842 102.95 17.784C103.512 15.8612 105.529 14.5644 107.407 14.0853C110.542 13.2805 113.939 13.9065 115.727 16.7683C117.419 19.4768 117.808 23.0924 117.661 26.2864C116.487 30.1256 113.881 32.4956 110.452 32.4956C109.986 32.4956 109.539 32.4445 109.105 32.3614C113.875 29.5443 117.246 25.0535 115.81 19.1894ZM104.195 28.5797C103.327 26.9955 102.79 24.9897 102.65 22.6453C103.167 23.1627 103.952 23.4629 105.082 23.4246C106.136 23.3927 106.832 22.8114 107.579 22.1598C107.898 21.8851 108.02 21.4379 108.301 21.1313C110.516 18.7294 113.179 19.8537 112.872 23.1308C112.464 27.4427 107.515 28.2475 104.22 28.5733C104.208 28.5733 104.201 28.5797 104.195 28.5797ZM110.446 10.2462C114.884 10.2462 117.949 14.1876 118.306 20.1795C118.038 18.8572 117.63 17.5796 117.036 16.4297C114.711 11.9007 108.543 11.2299 104.597 14.1939C104.323 14.3984 104.054 14.6667 103.799 14.9797C105.108 11.9965 107.439 10.2462 110.446 10.2462Z" fill="white"/>
<path d="M139.071 15.8359C137.175 15.8359 135.617 16.5449 134.366 17.1198C133.612 17.4648 132.954 17.765 132.495 17.765C131.997 17.765 131.894 17.5798 131.894 17.2604C131.894 16.1042 134.072 15.3823 136.594 14.5455C140.866 13.1273 146.178 11.3579 146.178 6.13887C146.178 2.1847 143.037 0 137.328 0C135.924 0 134.212 0.1597 132.558 0.3194C130.917 0.472712 129.225 0.632412 127.846 0.632412H123.875V1.59061H124.194C126.48 1.59061 126.78 3.23233 126.78 9.7417V23.7761C126.78 30.2919 126.473 31.9272 124.194 31.9272H123.875V32.879H127.987C129.685 32.879 131.058 33.026 132.514 33.1857C133.982 33.3454 135.496 33.5115 137.367 33.5115C144.033 33.5115 148.177 29.8895 148.177 24.0572C148.177 19.2982 144.346 15.8359 139.071 15.8359ZM130.1 1.88446C131.933 1.33509 133.65 1.07957 135.502 1.07957C139.046 1.07957 142.826 2.42105 142.826 6.19636C142.826 9.5309 139.257 11.2557 136.109 12.7824C133.452 14.0664 130.943 15.2801 130.943 17.3243C130.943 18.2888 131.658 18.7168 132.367 18.7168C133.286 18.7168 134.238 18.3016 135.24 17.8672C136.428 17.3498 137.654 16.8196 139.033 16.8196C142.788 16.8196 144.812 20.6588 144.812 24.2744C144.812 29.3018 141.268 32.4255 135.56 32.4255C133.478 32.4255 132.022 32.1828 130.094 31.5056V1.88446H130.1Z" fill="white"/>
<path d="M156.65 23.7761V0.632324H150.386V1.59052H150.705C152.991 1.59052 153.292 3.23224 153.292 9.74161V23.7761C153.292 30.2918 152.985 31.9271 150.705 31.9271H150.386V32.879H159.555V31.9271H159.236C156.95 31.9271 156.65 30.2854 156.65 23.7761Z" fill="white"/>
<path d="M167.077 23.7759V9.86279H160.813V10.8146H161.133C163.419 10.8146 163.719 12.4563 163.719 18.9657V23.7695C163.719 30.2852 163.412 31.9206 161.133 31.9206H160.813V32.8724H169.983V31.9206H169.663C167.378 31.927 167.077 30.2852 167.077 23.7759Z" fill="white"/>
<path d="M165.238 8.47662C166.579 8.47662 167.677 7.38428 167.677 6.03641C167.677 4.68854 166.585 3.59619 165.238 3.59619C163.897 3.59619 162.799 4.68854 162.799 6.03641C162.799 7.38428 163.897 8.47662 165.238 8.47662Z" fill="white"/>
<path d="M181.291 19.2149C177.804 18.1609 174.791 17.2474 174.791 14.4495C174.791 12.3287 176.827 10.1823 180.729 10.1823C184.068 10.1823 186.654 12.1562 187.823 15.5929L187.9 15.8101H188.576V11.6196L188.468 11.5238C188.359 11.4279 185.818 9.23047 180.422 9.23047C176.393 9.23047 172.332 11.0319 172.332 15.0499C172.332 20.0454 176.681 21.3357 180.518 22.4664C183.838 23.4502 186.705 24.2998 186.705 27.1552C186.705 30.6239 183.417 32.4956 180.161 32.5595C177.281 32.6297 175.397 31.1924 174.529 30.3364C173.43 29.2569 172.843 28.024 172.843 27.4107V27.0913H171.885V31.4415L172.032 31.5374C174.107 32.8661 176.77 33.5177 180.167 33.5177C186.265 33.5177 189.905 30.988 189.905 26.7528C189.892 21.8148 185.32 20.4286 181.291 19.2149Z" fill="white"/>
<path d="M202.458 19.2149C198.971 18.1609 195.958 17.2474 195.958 14.4495C195.958 12.3287 197.994 10.1823 201.896 10.1823C205.235 10.1823 207.821 12.1562 208.99 15.5929L209.067 15.8101H209.743V11.6196L209.635 11.5238C209.526 11.4279 206.985 9.23047 201.589 9.23047C197.56 9.23047 193.499 11.0319 193.499 15.0499C193.499 20.0454 197.848 21.3357 201.685 22.4664C205.005 23.4502 207.872 24.2998 207.872 27.1552C207.872 30.6239 204.584 32.4956 201.328 32.5595C198.473 32.6297 196.564 31.1924 195.696 30.3364C194.597 29.2569 194.01 28.024 194.01 27.4107V27.0913H193.052V31.4415L193.199 31.5374C195.274 32.8661 197.937 33.5177 201.334 33.5177C207.432 33.5177 211.071 30.988 211.071 26.7528C211.059 21.8148 206.493 20.4286 202.458 19.2149Z" fill="white"/>
<path d="M109.961 22.4793C110.331 25.2517 106.794 25.0664 104.98 24.7279C104.438 24.6256 103.844 25.9224 104.489 26.0438C106.513 26.4207 108.965 26.4973 110.286 24.6193C110.816 23.8655 111.129 22.8306 111.002 21.9044C110.88 21.0548 109.884 21.9235 109.961 22.4793Z" fill="white"/>
</svg>
