<svg width="16" height="12" viewBox="0 0 16 12" fill="none" xmlns="http://www.w3.org/2000/svg">
<path d="M9.53674e-07 1.21761C9.53674e-07 4.15253 9.53674e-07 7.08745 9.53674e-07 10.0224C0.00688934 10.0361 0.0165949 10.0496 0.0203514 10.0643C0.228245 10.863 0.714475 11.24 1.53665 11.24C4.33287 11.24 7.12878 11.24 9.925 11.24C11.4714 11.24 13.018 11.2422 14.5644 11.239C15.3634 11.2375 15.9946 10.6345 15.9962 9.85392C16.0018 7.0289 16.0008 4.20388 15.9958 1.37885C15.9949 0.925185 15.7914 0.560747 15.4329 0.28053C15.2388 0.128681 15.0096 0.0657492 14.7801 0C10.2597 0 5.73897 0 1.21855 0C1.18944 0.00970583 1.16094 0.0222295 1.13089 0.0288044C0.649039 0.13369 0.309649 0.414846 0.111774 0.863193C0.0623064 0.975906 0.0366325 1.09926 9.53674e-07 1.21761ZM14.3656 0.9399C14.3249 0.984672 14.3058 1.00784 14.2848 1.02882C12.3217 2.99628 10.3589 4.96406 8.39492 6.93059C8.15885 7.16697 7.83355 7.16228 7.59153 6.91963C5.63502 4.96031 3.67945 3.00004 1.72451 1.03915C1.69852 1.01316 1.64999 0.996257 1.66502 0.9399C5.88831 0.9399 10.1107 0.9399 14.3656 0.9399ZM1.64279 10.2963C1.66377 10.2663 1.66878 10.2566 1.67598 10.2494C2.96623 8.95566 4.25742 7.6626 5.54579 6.36703C5.61436 6.29815 5.6513 6.29909 5.7183 6.36765C6.11217 6.76872 6.51105 7.1651 6.90774 7.56335C7.54425 8.20205 8.45535 8.20174 9.09061 7.56303C9.47602 7.17543 9.86614 6.79252 10.2459 6.39927C10.3417 6.30002 10.3896 6.30159 10.487 6.39959C11.7444 7.66729 13.0071 8.92999 14.2673 10.1946C14.2945 10.2218 14.3371 10.2409 14.3386 10.2963C10.1116 10.2963 5.88674 10.2963 1.64279 10.2963ZM15.049 1.59802C15.049 4.28904 15.049 6.95783 15.049 9.64353C15.0146 9.61284 14.9949 9.59688 14.9767 9.57872C13.6899 8.28941 12.4044 6.99884 11.1147 5.71235C11.029 5.62688 11.0562 5.58712 11.126 5.51761C11.977 4.66851 12.8248 3.81627 13.6749 2.96591C14.1273 2.5135 14.5816 2.06327 15.049 1.59802ZM0.946789 9.62505C0.946789 6.95345 0.946789 4.28559 0.946789 1.59551C0.999388 1.64467 1.03727 1.67754 1.07265 1.71324C2.33316 2.97656 3.59241 4.24145 4.85667 5.5007C4.95686 5.60027 4.94904 5.64692 4.85417 5.74147C3.58678 7.00511 2.32376 8.27344 1.05888 9.53989C1.02788 9.57089 1.00502 9.61566 0.946789 9.62505Z" fill="#F8EEE4"/>
</svg>
