<svg width="28" height="28" viewBox="0 0 28 28" fill="none" xmlns="http://www.w3.org/2000/svg">
<path d="M13.3861 0C13.7875 0 14.189 0 14.5904 0C14.7061 0.0727358 14.8371 0.0563292 14.9627 0.0612512C15.4914 0.0825797 16.0162 0.150394 16.5339 0.251021C20.0512 0.936815 22.9198 2.69177 25.1073 5.52737C26.6828 7.56999 27.6019 9.88605 27.8915 12.4531C27.9293 12.7862 27.8887 13.1285 27.9995 13.4528C27.9995 13.8176 27.9995 14.1818 27.9995 14.5466C27.9836 14.6073 27.9556 14.668 27.9529 14.7293C27.9288 15.2663 27.8701 15.7984 27.778 16.3284C27.1687 19.8208 25.4753 22.6826 22.7246 24.9068C20.6199 26.6087 18.2064 27.5975 15.5089 27.8945C15.1848 27.93 14.8509 27.8862 14.5355 28C14.1709 28 13.8056 28 13.441 28C13.3231 27.9366 13.1931 27.9448 13.0664 27.9404C12.4188 27.9158 11.7793 27.8217 11.1476 27.6866C8.01139 27.0183 5.37639 25.4805 3.31995 23.0239C0.507274 19.6638 -0.504498 15.7848 0.231436 11.4753C0.67179 8.8951 1.80914 6.62224 3.56891 4.68189C5.94397 2.06285 8.89374 0.532667 12.4149 0.109924C12.7379 0.0710951 13.0713 0.115393 13.3861 0ZM13.9943 9.06299C13.8303 9.06299 13.6658 9.06244 13.5018 9.06299C11.9334 9.06791 10.3651 9.0794 8.80326 9.23362C8.19784 9.29378 7.71636 9.59292 7.42516 10.1425C7.23158 10.5073 7.13233 10.9071 7.08407 11.3156C6.92668 12.6495 6.95026 13.9899 6.98097 15.3281C6.99358 15.881 7.03417 16.4372 7.13452 16.9846C7.33742 18.0872 7.88526 18.6466 8.90361 18.7636C9.36481 18.8167 9.82874 18.855 10.2927 18.8708C12.0881 18.9315 13.8852 18.9682 15.6811 18.9277C16.8289 18.902 17.9789 18.8944 19.1222 18.7708C19.7381 18.704 20.2349 18.4295 20.5382 17.8722C20.7449 17.4927 20.8442 17.0754 20.8946 16.6483C21.0372 15.4419 21.0175 14.2294 21.0054 13.0181C20.9988 12.3443 20.9588 11.67 20.8365 11.0072C20.7065 10.3028 20.4345 9.68097 19.7107 9.37417C19.4025 9.24346 19.0784 9.20135 18.7521 9.1833C17.1672 9.09635 15.5819 9.04494 13.9943 9.06299Z" fill="#F8EEE4"/>
<path d="M12.5714 11.9219C13.8305 12.5781 15.0359 13.2065 16.2796 13.8551C15.7608 14.1236 15.2854 14.3697 14.8099 14.6164C14.1316 14.968 13.4538 15.3202 12.7754 15.6713C12.674 15.7238 12.5698 15.7916 12.5703 15.5844C12.5725 14.3845 12.5714 13.1835 12.5714 11.9219Z" fill="#F8EEE4"/>
</svg>
