<svg width="28" height="28" viewBox="0 0 28 28" fill="none" xmlns="http://www.w3.org/2000/svg">
<path d="M13.1225 0C13.706 0 14.289 0 14.8725 0C15.3404 0.0602739 15.8116 0.103014 16.2762 0.184109C19.6223 0.768219 22.4336 2.32657 24.6274 4.9189C27.4036 8.19945 28.4742 12.0049 27.8052 16.2444C27.2261 19.9145 25.3999 22.8964 22.4445 25.143C19.3867 27.4679 15.9141 28.3638 12.1078 27.8679C9.31622 27.5046 6.85614 26.3616 4.75001 24.4915C2.31732 22.3315 0.797985 19.6455 0.216112 16.44C0.122421 15.9222 0.0698221 15.3973 -0.00195312 14.8751C-0.00195312 14.2915 -0.00195312 13.7085 -0.00195312 13.1249C0.0402354 12.783 0.075849 12.44 0.124612 12.0992C0.565674 9.04766 1.85215 6.40712 4.01198 4.20712C6.1088 2.07288 8.63573 0.734246 11.5867 0.215342C12.0952 0.125479 12.6102 0.0706849 13.1225 0ZM15.2007 18.5638C15.2007 17.3156 15.2117 16.0668 15.1925 14.8192C15.1881 14.5282 15.279 14.4773 15.5404 14.4866C16.1135 14.5057 16.6883 14.486 17.2619 14.4964C17.4389 14.4997 17.4887 14.4433 17.5046 14.269C17.577 13.4712 17.658 12.6734 17.7556 11.8783C17.783 11.6575 17.7139 11.6181 17.5145 11.6214C16.8313 11.6312 16.1475 11.6164 15.4648 11.6301C15.244 11.6345 15.1897 11.5622 15.1969 11.3523C15.2117 10.8882 15.198 10.423 15.2029 9.95835C15.2084 9.40876 15.4582 9.16219 16.0116 9.1578C16.5129 9.15397 17.0137 9.15123 17.515 9.15999C17.6821 9.16273 17.7337 9.10794 17.732 8.94136C17.7249 8.1578 17.7249 7.37424 17.732 6.59068C17.7337 6.42958 17.6926 6.36383 17.5189 6.36493C16.708 6.37041 15.8965 6.34082 15.0867 6.36657C13.1609 6.42685 12.047 7.48109 11.8492 9.40712C11.784 10.0427 11.8196 10.6822 11.8295 11.3189C11.8333 11.5803 11.7473 11.6416 11.5056 11.6296C11.1424 11.611 10.7769 11.629 10.4126 11.623C10.2767 11.6208 10.2197 11.6592 10.2208 11.8071C10.2268 12.6455 10.2274 13.4838 10.2203 14.3222C10.2192 14.4811 10.292 14.4964 10.4186 14.4942C10.7736 14.4888 11.1303 14.5112 11.4843 14.4866C11.7566 14.4674 11.8311 14.543 11.8295 14.8241C11.8169 17.3205 11.8262 19.8175 11.8163 22.314C11.8152 22.5611 11.8886 22.6186 12.1242 22.6153C13.0535 22.6027 13.9827 22.6 14.912 22.6164C15.1629 22.6208 15.2084 22.5397 15.2062 22.309C15.1947 21.0603 15.2007 19.812 15.2007 18.5638Z" fill="#073E0D"/>
</svg>
