<svg width="28" height="28" viewBox="0 0 28 28" fill="none" xmlns="http://www.w3.org/2000/svg">
<path d="M13.104 0C13.7015 0 14.2985 0 14.896 0C14.9677 0.01568 15.0388 0.04088 15.111 0.04648C17.033 0.19376 18.8574 0.69888 20.5447 1.62848C24.5 3.80688 26.9231 7.11704 27.7794 11.5584C27.8779 12.0686 27.9272 12.5888 27.9994 13.104C27.9994 13.7015 27.9994 14.2985 27.9994 14.896C27.9121 15.2309 27.9216 15.5781 27.8723 15.918C27.4641 18.7365 26.3278 21.2206 24.4222 23.3363C22.2718 25.7236 19.609 27.2143 16.4399 27.781C15.9286 27.8723 15.4106 27.9283 14.8954 28C14.2979 28 13.701 28 13.1034 28C13.0413 27.9843 12.9802 27.9597 12.9175 27.9552C10.7419 27.7917 8.70576 27.1662 6.84768 26.0277C3.2424 23.8185 1.02088 20.6321 0.22344 16.4702C0.12376 15.9505 0.07336 15.4213 0 14.896C0 14.2985 0 13.7015 0 13.104C0.07224 12.5882 0.13104 12.0702 0.21784 11.5573C1.17936 5.8576 5.8016 1.21576 11.503 0.22568C12.0338 0.13328 12.5703 0.07448 13.104 0ZM22.6475 14.2615C22.6475 12.9679 22.6464 11.923 22.6481 10.878C22.6486 10.467 22.633 10.0576 22.5691 9.65104C22.2874 7.8624 21.4094 6.52512 19.6728 5.8464C18.9526 5.56528 18.1972 5.44488 17.4283 5.44152C15.2359 5.43312 13.043 5.4404 10.8506 5.43704C10.383 5.43648 9.91816 5.46448 9.45784 5.54456C7.69552 5.85088 6.38624 6.74296 5.73272 8.46216C5.46504 9.16664 5.3536 9.90248 5.35304 10.6546C5.35136 12.8285 5.35304 15.0024 5.35192 17.1763C5.35192 17.5778 5.36928 17.9782 5.43368 18.3753C5.70248 20.0357 6.49152 21.3265 8.06904 22.045C8.84408 22.3978 9.67064 22.5512 10.5157 22.5557C12.8386 22.5691 15.162 22.5708 17.4854 22.5551C18.3876 22.549 19.2674 22.3804 20.0833 21.9727C21.7577 21.1355 22.4745 19.6812 22.6145 17.9021C22.7158 16.6096 22.6274 15.3098 22.6475 14.2615Z" fill="#073E0D"/>
<path d="M13.9999 7.06036C15.1479 7.06036 16.2954 7.05868 17.4434 7.06148C17.8174 7.0626 18.1887 7.1074 18.5527 7.19196C19.932 7.51451 20.8263 8.52531 21.0022 9.94267C21.0414 10.2585 21.0576 10.5738 21.0576 10.8913C21.0559 13.0193 21.0559 15.1473 21.057 17.2753C21.0576 17.8112 20.9904 18.337 20.8056 18.841C20.3402 20.1061 19.3955 20.7663 18.0857 20.8817C16.4578 21.025 14.822 20.9662 13.1896 20.9618C12.1077 20.959 11.0241 20.9931 9.9444 20.8906C8.29576 20.7338 7.18976 19.6452 6.99432 18.0016C6.96016 17.7132 6.94336 17.4259 6.94336 17.1364C6.94392 14.9804 6.94336 12.8244 6.94448 10.6684C6.94504 10.1515 7.01784 9.64531 7.19648 9.15923C7.66184 7.89251 8.60936 7.25356 9.91584 7.11468C11.0498 6.99428 12.1911 7.06092 13.3285 7.03292C13.5525 7.02732 13.7765 7.03236 14.0005 7.03236C13.9999 7.04132 13.9999 7.05084 13.9999 7.06036ZM13.9932 9.45043C11.4553 9.45827 9.43704 11.4939 9.4488 14.0346C9.46056 16.5484 11.5034 18.5599 14.0352 18.551C16.525 18.542 18.5488 16.5126 18.551 14.0223C18.5533 11.4787 16.5233 9.44259 13.9932 9.45043ZM18.5774 10.3772C19.0774 10.3789 19.4851 9.97627 19.4874 9.47955C19.489 8.98003 19.0892 8.57235 18.5914 8.56619C18.0778 8.56003 17.6634 8.96939 17.6685 9.47899C17.6718 9.98243 18.0706 10.3755 18.5774 10.3772Z" fill="#073E0D"/>
<path d="M11.0641 13.9618C11.0977 12.3244 12.4215 11.0353 14.0377 11.065C15.6751 11.0958 16.9682 12.4224 16.9346 14.0374C16.901 15.6766 15.5783 16.9651 13.9621 16.9343C12.3275 16.9035 11.0311 15.573 11.0641 13.9618Z" fill="#073E0D"/>
</svg>
