<svg width="28" height="28" viewBox="0 0 28 28" fill="none" xmlns="http://www.w3.org/2000/svg">
<path d="M13.3856 0C13.7871 0 14.1885 0 14.5899 0C14.7056 0.0727358 14.8367 0.0563292 14.9622 0.0612512C15.4909 0.0825797 16.0157 0.150394 16.5334 0.251021C20.0507 0.936815 22.9193 2.69177 25.1068 5.52737C26.6823 7.56999 27.6014 9.88605 27.891 12.4531C27.9288 12.7862 27.8882 13.1285 27.999 13.4528C27.999 13.8176 27.999 14.1818 27.999 14.5466C27.9831 14.6073 27.9552 14.668 27.9524 14.7293C27.9283 15.2663 27.8696 15.7984 27.7775 16.3284C27.1682 19.8208 25.4748 22.6826 22.7241 24.9068C20.6194 26.6087 18.2059 27.5975 15.5084 27.8945C15.1843 27.93 14.8504 27.8862 14.535 28C14.1704 28 13.8051 28 13.4405 28C13.3226 27.9366 13.1926 27.9448 13.0659 27.9404C12.4183 27.9158 11.7789 27.8217 11.1471 27.6866C8.0109 27.0183 5.37591 25.4805 3.31946 23.0239C0.506786 19.6638 -0.504986 15.7848 0.230948 11.4753C0.671302 8.8951 1.80865 6.62224 3.56842 4.68189C5.94349 2.06285 8.89325 0.532667 12.4144 0.109924C12.7374 0.0710951 13.0709 0.115393 13.3856 0ZM13.9938 9.06299C13.8298 9.06299 13.6653 9.06244 13.5013 9.06299C11.933 9.06791 10.3646 9.0794 8.80277 9.23362C8.19735 9.29378 7.71587 9.59292 7.42468 10.1425C7.2311 10.5073 7.13184 10.9071 7.08358 11.3156C6.92619 12.6495 6.94977 13.9899 6.98048 15.3281C6.9931 15.881 7.03368 16.4372 7.13403 16.9846C7.33693 18.0872 7.88477 18.6466 8.90312 18.7636C9.36432 18.8167 9.82825 18.855 10.2922 18.8708C12.0876 18.9315 13.8847 18.9682 15.6806 18.9277C16.8284 18.902 17.9784 18.8944 19.1217 18.7708C19.7376 18.704 20.2344 18.4295 20.5377 17.8722C20.7444 17.4927 20.8437 17.0754 20.8941 16.6483C21.0367 15.4419 21.017 14.2294 21.0049 13.0181C20.9983 12.3443 20.9583 11.67 20.836 11.0072C20.706 10.3028 20.434 9.68097 19.7102 9.37417C19.402 9.24346 19.0779 9.20135 18.7516 9.1833C17.1668 9.09635 15.5814 9.04494 13.9938 9.06299Z" fill="#073E0D"/>
<path d="M12.5714 11.9219C13.8305 12.5781 15.0358 13.2065 16.2796 13.8551C15.7608 14.1236 15.2854 14.3697 14.8099 14.6164C14.1316 14.968 13.4538 15.3202 12.7754 15.6713C12.674 15.7238 12.5698 15.7916 12.5703 15.5844C12.5725 14.3845 12.5714 13.1835 12.5714 11.9219Z" fill="#073E0D"/>
</svg>
